<svg xmlns="http://www.w3.org/2000/svg" width="239" height="128" viewBox="0 0 239 128"><path fill="#b5b5e2" d="M11.10 81.40L11.10 59Q11.10 52.20 10.20 49.35Q9.30 46.50 5.90 46.20L5.90 46.20Q4.50 46 2.10 45.90L2.10 45.90Q1.90 45.20 1.90 44.40Q1.90 43.60 2.10 43.20L2.10 43.20Q6.10 42.50 10.50 41.10L10.50 41.10Q17 38.60 18.90 37.60L18.90 37.60Q20.40 37.60 20.40 38.60L20.40 38.60Q19.10 45.90 19.10 70.60L19.10 70.60L19.10 95.10Q19.10 105.30 17.05 111Q15 116.70 8.80 121.50L8.80 121.50L0.40 127.90Q-1.20 127.40-1.20 125.90L-1.20 125.90L3.20 121.50Q8.70 116 9.90 109Q11.10 102 11.10 81.40L11.10 81.40ZM16.70 25.60L16.70 25.60Q13.10 23.10 11.60 19L11.60 19Q12.80 17.60 14.85 16.05Q16.90 14.50 18.40 13.90L18.40 13.90Q22.20 16.70 23.30 20.60L23.30 20.60Q20.50 24.20 16.70 25.60ZM56.20 89.80L56.20 89.80L47.20 89.50Q40.20 89.50 34 90.30L34 90.30Q33.40 89.50 33.40 88.60L33.40 88.60L33.60 87.80Q37.90 86.80 39.40 84.70L39.40 84.70Q40.50 83.10 41.10 80.85Q41.70 78.60 41.70 67.90L41.70 67.90L41.70 58.30Q41.70 52.10 41.15 49.70Q40.60 47.30 39.50 46.50Q38.40 45.70 36.60 45.50L36.60 45.50L32.90 45.20Q32.60 44.80 32.60 43.90L32.60 43.90L32.90 42.60Q38.10 41.50 41.35 40.35Q44.60 39.20 49 37L49 37Q50.10 37 50.50 38.20L50.50 38.20Q49.30 45 49.30 70.60L49.30 70.60Q49.30 75.20 49.65 80.75Q50 86.30 50.60 86.40L50.60 86.40Q52.10 86.70 56.20 86.70L56.20 86.70Q56.50 87.40 56.50 88.30Q56.50 89.20 56.20 89.80ZM46.80 25.60L46.80 25.60Q43.20 23.10 41.70 19L41.70 19Q42.90 17.60 44.95 16.05Q47 14.50 48.50 13.90L48.50 13.90Q52.30 16.70 53.40 20.60L53.40 20.60Q50.60 24.20 46.80 25.60ZM78.90 51.90L78.90 80.70Q78.90 83.10 84.50 85.15Q90.10 87.20 92.30 87.20L92.30 87.20Q98 87.20 102.75 82.10Q107.50 77 107.50 70.20L107.50 70.20Q107.50 59.80 102.80 52.70Q98.10 45.60 92.45 45.60Q86.80 45.60 78.90 51.90L78.90 51.90ZM115.90 66.40L115.90 66.40Q115.90 73.10 112.65 78.30Q109.40 83.50 104.60 86.20L104.60 86.20Q95.30 91.50 87.80 91.50L87.80 91.50Q85.20 91.50 74.10 89.10L74.10 89.10L70.20 91.50Q69.20 91.50 68.70 90.60L68.70 90.60Q70.20 85.10 70.60 77.55Q71 70 71 45.60L71 45.60L71 22Q71 15.40 70 12.75Q69 10.10 65.80 9.60L65.80 9.60L62.30 9.20Q62.10 8.40 62.10 8L62.10 8L62.30 6.70Q67.70 5.70 70.50 4.75Q73.30 3.80 79.40 0L79.40 0Q80.30 0 80.90 1L80.90 1Q78.90 12.70 78.90 47.60L78.90 47.60Q91.10 40.50 97 38.60L97 38.60Q104.50 40.20 110.20 47.75Q115.90 55.30 115.90 66.40ZM174.80 65.10L174.80 65.10Q174.80 87.30 149 91.50L149 91.50Q138.40 91.50 131.15 83.95Q123.90 76.40 123.90 65.10L123.90 65.10Q123.90 42.70 149.80 38.60L149.80 38.60Q160.30 38.60 167.55 46.30Q174.80 54 174.80 65.10ZM151.20 87.20L151.20 87.20Q165.60 87.20 165.60 68.80L165.60 68.80Q165.60 58.40 160.80 50.60Q156 42.80 148.10 42.80Q140.20 42.80 136.65 47.85Q133.10 52.90 133.10 62.25Q133.10 71.60 138 79.40Q142.90 87.20 151.20 87.20ZM185.60 44.60L185.60 44.60L181.70 44.70Q181.30 44.20 181.30 43.40Q181.30 42.60 181.50 42L181.50 42Q188.30 41.10 192.60 39.20L192.60 39.20Q194 38.60 194.30 38.60L194.30 38.60Q195.20 38.60 196.50 41.40Q197.80 44.20 198.70 47.60L198.70 47.60Q208.80 41.90 218.40 38.60L218.40 38.60Q224.50 38.60 227.80 43.45Q231.10 48.30 231.10 56.30L231.10 56.30L230.90 69.50Q230.90 86.20 232.40 86.45Q233.90 86.70 238 86.70L238 86.70Q238.40 87.40 238.40 88.20Q238.40 89 238 89.80L238 89.80L228.80 89.50Q220.50 89.50 215.60 90.30L215.60 90.30Q215.10 89.70 215.10 88.60L215.10 88.60L215.20 87.80Q218.10 87.10 219.70 85.85Q221.30 84.60 221.75 83.45Q222.20 82.30 222.50 79.95Q222.80 77.60 222.80 70.80L222.80 70.80L222.80 62.50Q222.80 55.50 221.20 50.70L221.20 50.70Q220.50 48.80 219.60 47.90L219.60 47.90Q217.40 45.50 214.30 45.50Q211.20 45.50 208.10 46.70Q205 47.90 203.40 48.90Q201.80 49.90 198.90 51.90L198.90 51.90Q198.50 59.80 198.50 73.05Q198.50 86.30 199.85 86.50Q201.20 86.70 204.90 86.70L204.90 86.70Q205.30 87.40 205.30 88.20Q205.30 89 204.90 89.80L204.90 89.80L196.40 89.50Q188.80 89.50 183.20 90.30L183.20 90.30Q182.70 89.70 182.70 88.60L182.70 88.60L182.80 87.80Q185.70 87.10 187.30 85.85Q188.90 84.60 189.35 83.45Q189.80 82.30 190.15 79.15Q190.50 76 190.50 65.60Q190.50 55.20 190.45 54.05Q190.40 52.90 190.30 51.10Q190.20 49.30 189.90 48.40Q189.60 47.50 189 46.50L189 46.50Q188 44.60 185.60 44.60Z"></path></svg>